# Blender v3.2.2 OBJ File: 'Caixinha de leite.blend'
# www.blender.org
mtllib Caixinha de leite.mtl
o Caixa_de_leite_Cube.001
v -1.367635 0.612018 1.229322
v -1.367635 7.567963 1.229322
v 0.068017 8.206854 0.040816
v -1.367635 0.612018 -1.686584
v -1.367635 8.452548 -1.686584
v 0.430543 8.170352 0.156734
v 1.367635 0.612018 1.229322
v 1.367635 7.567963 1.229322
v 0.623440 8.077925 0.450248
v 1.367635 0.612018 -1.686584
v 1.367635 8.452548 -1.686584
v 0.556448 7.972822 0.784019
v 0.260913 7.904220 1.001873
v -0.124879 7.904220 1.001873
v -0.420414 7.972822 0.784019
v -0.487406 8.077925 0.450248
v -0.294510 8.170352 0.156734
v -0.294510 7.917503 0.077113
v -0.420414 7.726576 0.706477
v -0.487406 7.828166 0.371599
v -0.124879 7.660267 0.925053
v 0.260913 7.660267 0.925053
v 0.623440 7.828166 0.371599
v 0.556448 7.726576 0.706477
v 0.430543 7.917503 0.077113
v 0.068017 7.952785 -0.039189
vt 0.375000 0.000000
vt 0.625000 0.000000
vt 0.625000 0.250000
vt 0.375000 0.250000
vt 0.625000 0.500000
vt 0.375000 0.500000
vt 0.625000 0.750000
vt 0.375000 0.750000
vt 0.625000 1.000000
vt 0.375000 1.000000
vt 0.125000 0.500000
vt 0.125000 0.750000
vt 0.788425 0.705173
vt 0.875000 0.750000
vt 0.699141 0.705173
vt 0.726153 0.723913
vt 0.761414 0.723913
vt 0.875000 0.500000
vt 0.794548 0.676462
vt 0.776918 0.651213
vt 0.743783 0.641242
vt 0.710649 0.651213
vt 0.693018 0.676462
vt 1.000000 0.620671
vt 1.000000 1.000000
vt 0.888889 1.000000
vt 0.888889 0.622493
vt 0.777778 1.000000
vt 0.777778 0.627105
vt 0.666667 1.000000
vt 0.666667 0.632351
vt 0.555556 1.000000
vt 0.555556 0.635775
vt 0.444444 1.000000
vt 0.444444 0.635775
vt 0.333333 1.000000
vt 0.333333 0.632351
vt 0.222222 1.000000
vt 0.222222 0.627105
vt 0.457846 0.130000
vt 0.486354 0.291676
vt 0.404269 0.433851
vt 0.332085 0.024474
vt 0.457846 0.130000
vt 0.486354 0.291676
vt 0.404269 0.433851
vt 0.250000 0.490000
vt 0.332085 0.024474
vt 0.111111 1.000000
vt 0.111111 0.622493
vt 0.000000 1.000000
vt 0.000000 0.620671
vn -1.0000 0.0000 0.0000
vn 0.0000 0.0000 -1.0000
vn 1.0000 0.0000 0.0000
vn 0.0000 0.0000 1.0000
vn 0.0000 -1.0000 0.0000
vn 0.0000 0.9569 0.2903
vn 0.3178 0.2848 -0.9044
vn 0.8473 0.1595 -0.5066
vn 0.9822 -0.0565 0.1793
vn 0.6115 -0.2377 0.7547
vn 0.0000 -0.3004 0.9538
vn -0.6115 -0.2377 0.7547
vn -0.9822 -0.0565 0.1793
vn 0.0000 0.9538 0.3004
vn -0.8473 0.1595 -0.5066
vn -0.3178 0.2848 -0.9044
usemtl (null)
s off
f 1/1/1 2/2/1 5/3/1 4/4/1
f 4/4/2 5/3/2 11/5/2 10/6/2
f 10/6/3 11/5/3 8/7/3 7/8/3
f 7/8/4 8/7/4 2/9/4 1/10/4
f 4/11/5 10/6/5 7/8/5 1/12/5
f 19/13/6 2/14/6 8/7/6 24/15/6 22/16/6 21/17/6
f 24/15/6 8/7/6 11/5/6 5/18/6 2/14/6 19/13/6 20/19/6 18/20/6 26/21/6 25/22/6 23/23/6
f 26/24/7 3/25/7 6/26/7 25/27/7
f 25/27/8 6/26/8 9/28/8 23/29/8
f 23/29/9 9/28/9 12/30/9 24/31/9
f 24/31/10 12/30/10 13/32/10 22/33/10
f 22/33/11 13/32/11 14/34/11 21/35/11
f 21/35/12 14/34/12 15/36/12 19/37/12
f 15/36/13 16/38/13 20/39/13 19/37/13
f 16/40/14 15/41/14 14/42/14 13/43/14 12/44/14 9/45/14 6/46/14 3/47/14 17/48/14
f 16/38/15 17/49/15 18/50/15 20/39/15
f 17/49/16 3/51/16 26/52/16 18/50/16
