# Blender v3.2.2 OBJ File: 'Latinha.blend'
# www.blender.org
mtllib Latinha.mtl
o Cylinder
v 0.000000 1.057919 -1.000000
v 0.000000 4.078594 -1.000000
v 0.464723 1.057919 -0.885456
v 0.464723 4.078594 -0.885456
v 0.822984 1.057919 -0.568065
v 0.822984 4.078594 -0.568065
v 0.992709 1.057919 -0.120537
v 0.992709 4.078594 -0.120537
v 0.935016 1.057919 0.354605
v 0.935016 4.078594 0.354605
v 0.663123 1.057919 0.748511
v 0.663123 4.078594 0.748511
v 0.239316 1.057919 0.970942
v 0.239316 4.078594 0.970942
v -0.239316 1.057919 0.970942
v -0.239316 4.078594 0.970942
v -0.663123 1.057919 0.748511
v -0.663123 4.078594 0.748511
v -0.935016 1.057919 0.354605
v -0.935016 4.078594 0.354605
v -0.992709 1.057919 -0.120537
v -0.992709 4.078594 -0.120537
v -0.822984 1.057919 -0.568065
v -0.822984 4.078594 -0.568065
v -0.464723 1.057919 -0.885456
v -0.464723 4.078594 -0.885456
v -0.000000 0.916158 -0.707288
v 0.332402 0.916158 -0.626272
v 0.588654 0.916158 -0.401785
v 0.710053 0.916158 -0.085254
v 0.668787 0.916158 0.250808
v 0.474310 0.916158 0.529413
v 0.171175 0.916158 0.686736
v -0.171175 0.916158 0.686736
v -0.474310 0.916158 0.529413
v -0.668787 0.916158 0.250808
v -0.710053 0.916158 -0.085254
v -0.588654 0.916158 -0.401785
v -0.332402 0.916158 -0.626272
v 0.000000 4.204603 -0.950401
v 0.446656 4.204603 -0.841538
v 0.790989 4.204603 -0.539889
v 0.954116 4.204603 -0.114558
v 0.898666 4.204603 0.337017
v 0.637343 4.204603 0.711385
v 0.230012 4.204603 0.922784
v -0.230012 4.204603 0.922784
v -0.637343 4.204603 0.711385
v -0.898666 4.204603 0.337017
v -0.954116 4.204603 -0.114558
v -0.790989 4.204603 -0.539889
v -0.446656 4.204603 -0.841538
v -0.000000 0.971114 -0.558090
v 0.251353 0.971114 -0.494164
v 0.445125 0.971114 -0.317031
v 0.536923 0.971114 -0.067270
v 0.505719 0.971114 0.197902
v 0.358661 0.971114 0.417737
v 0.129438 0.971114 0.541873
v -0.129438 0.971114 0.541873
v -0.358661 0.971114 0.417737
v -0.505719 0.971114 0.197902
v -0.536923 0.971114 -0.067270
v -0.445125 0.971114 -0.317031
v -0.251353 0.971114 -0.494164
v 0.000000 4.080640 -0.887744
v 0.417210 4.080640 -0.786058
v 0.738842 4.080640 -0.504296
v 0.891214 4.080640 -0.107006
v 0.839420 4.080640 0.314799
v 0.595325 4.080640 0.664486
v 0.214848 4.080640 0.861948
v -0.214848 4.080640 0.861948
v -0.595325 4.080640 0.664486
v -0.839420 4.080640 0.314799
v -0.891214 4.080640 -0.107006
v -0.738842 4.080640 -0.504296
v -0.417210 4.080640 -0.786058
vt 1.000000 0.500000
vt 1.000000 1.000000
vt 0.923077 1.000000
vt 0.923077 0.500000
vt 0.846154 1.000000
vt 0.846154 0.500000
vt 0.769231 1.000000
vt 0.769231 0.500000
vt 0.692308 1.000000
vt 0.692308 0.500000
vt 0.615385 1.000000
vt 0.615385 0.500000
vt 0.538462 1.000000
vt 0.538462 0.500000
vt 0.461538 1.000000
vt 0.461538 0.500000
vt 0.384615 1.000000
vt 0.384615 0.500000
vt 0.307692 1.000000
vt 0.307692 0.500000
vt 0.230769 1.000000
vt 0.230769 0.500000
vt 0.153846 1.000000
vt 0.153846 0.500000
vt 0.923077 1.000000
vt 0.846154 1.000000
vt 0.076923 1.000000
vt 0.076923 0.500000
vt 0.000000 1.000000
vt 0.000000 0.500000
vt 0.615385 0.500000
vt 0.692308 0.500000
vt 0.461538 0.500000
vt 0.384615 0.500000
vt 0.384615 0.500000
vt 0.461538 0.500000
vt 0.230769 0.500000
vt 0.307692 0.500000
vt 0.769231 0.500000
vt 0.846154 0.500000
vt 0.923077 0.500000
vt 1.000000 0.500000
vt 0.000000 0.500000
vt 0.076923 0.500000
vt 0.538462 0.500000
vt 0.153846 0.500000
vt 0.538462 1.000000
vt 0.461538 1.000000
vt 0.153846 1.000000
vt 0.076923 1.000000
vt 0.692308 1.000000
vt 0.615385 1.000000
vt 0.307692 1.000000
vt 0.230769 1.000000
vt 0.769231 1.000000
vt 0.384615 1.000000
vt 0.000000 1.000000
vt 1.000000 1.000000
vt 0.750000 0.490000
vt 0.861534 0.462509
vt 0.947516 0.386336
vt 0.988250 0.278929
vt 0.974404 0.164895
vt 0.909149 0.070357
vt 0.807436 0.016974
vt 0.692564 0.016974
vt 0.590851 0.070357
vt 0.525596 0.164895
vt 0.511750 0.278929
vt 0.552484 0.386336
vt 0.638466 0.462509
vt 0.923077 0.500000
vt 1.000000 0.500000
vt 0.307692 0.500000
vt 0.846154 0.500000
vt 0.230769 0.500000
vt 0.769231 0.500000
vt 0.153846 0.500000
vt 0.692308 0.500000
vt 0.076923 0.500000
vt 0.615385 0.500000
vt 0.000000 0.500000
vt 0.538462 0.500000
vt 0.076923 1.000000
vt 0.000000 1.000000
vt 0.923077 1.000000
vt 0.153846 1.000000
vt 0.230769 1.000000
vt 0.307692 1.000000
vt 0.384615 1.000000
vt 0.461538 1.000000
vt 0.538462 1.000000
vt 0.615385 1.000000
vt 0.692308 1.000000
vt 0.769231 1.000000
vt 0.846154 1.000000
vt 1.000000 1.000000
vn 0.2393 0.0000 -0.9709
vn 0.6631 0.0000 -0.7485
vn 0.9350 0.0000 -0.3546
vn 0.9927 0.0000 0.1205
vn 0.8230 0.0000 0.5681
vn 0.4647 0.0000 0.8855
vn 0.0000 0.0000 1.0000
vn -0.4647 0.0000 0.8855
vn -0.8230 0.0000 0.5681
vn -0.9927 0.0000 0.1205
vn -0.9350 0.0000 -0.3546
vn 0.6248 0.3269 -0.7091
vn -0.6631 0.0000 -0.7485
vn -0.2393 0.0000 -0.9709
vn 0.3723 -0.8915 0.2582
vn 0.1606 -0.9391 -0.3038
vn -0.4528 -0.8899 0.0552
vn 0.4252 -0.8905 -0.1620
vn -0.2076 -0.8938 0.3975
vn 0.1065 -0.8946 -0.4340
vn -0.1065 -0.8946 -0.4340
vn 0.2076 -0.8938 0.3975
vn -0.4252 -0.8905 -0.1620
vn 0.4528 -0.8899 0.0552
vn -0.3723 -0.8915 0.2582
vn 0.2981 -0.8927 -0.3380
vn 0.0000 -0.8949 0.4463
vn -0.2981 -0.8927 -0.3380
vn 0.0000 0.3570 0.9341
vn -0.6248 0.3269 -0.7091
vn 0.7810 0.3102 0.5420
vn -0.9506 0.2880 0.1161
vn 0.8925 0.2961 -0.3403
vn -0.4348 0.3424 0.8329
vn -0.2227 0.3531 -0.9087
vn 0.2227 0.3531 -0.9087
vn 0.4348 0.3424 0.8329
vn -0.8925 0.2961 -0.3403
vn 0.9506 0.2880 0.1161
vn -0.7810 0.3102 0.5420
vn 0.0000 -1.0000 -0.0000
vn -0.0848 -0.9361 0.3413
vn 0.2658 -0.9467 -0.1821
vn -0.2217 -0.9430 0.2484
vn 0.3071 -0.9510 -0.0370
vn -0.2937 -0.9495 0.1106
vn 0.2937 -0.9495 0.1106
vn -0.3071 -0.9510 -0.0370
vn 0.2217 -0.9430 0.2484
vn -0.2658 -0.9467 -0.1821
vn 0.0848 -0.9361 0.3413
vn -0.1606 -0.9391 -0.3038
vn 0.0000 -0.9350 -0.3547
vn 0.2126 0.4408 0.8721
vn 0.0000 1.0000 0.0000
vn -0.4133 0.4414 -0.7964
vn 0.0000 0.4406 -0.8977
vn 0.4133 0.4414 -0.7964
vn -0.2126 0.4408 0.8721
vn 0.7350 0.4433 -0.5131
vn -0.5910 0.4423 0.6746
vn 0.8891 0.4445 -0.1092
vn -0.8366 0.4440 0.3209
vn 0.8366 0.4440 0.3209
vn -0.8891 0.4445 -0.1092
vn 0.5910 0.4423 0.6746
vn -0.7350 0.4433 -0.5131
usemtl None
s off
f 1/1/1 2/2/1 4/3/1 3/4/1
f 3/4/2 4/3/2 6/5/2 5/6/2
f 5/6/3 6/5/3 8/7/3 7/8/3
f 7/8/4 8/7/4 10/9/4 9/10/4
f 9/10/5 10/9/5 12/11/5 11/12/5
f 11/12/6 12/11/6 14/13/6 13/14/6
f 13/14/7 14/13/7 16/15/7 15/16/7
f 15/16/8 16/15/8 18/17/8 17/18/8
f 17/18/9 18/17/9 20/19/9 19/20/9
f 19/20/10 20/19/10 22/21/10 21/22/10
f 21/22/11 22/21/11 24/23/11 23/24/11
f 6/5/12 4/3/12 41/25/12 42/26/12
f 23/24/13 24/23/13 26/27/13 25/28/13
f 25/28/14 26/27/14 2/29/14 1/30/14
f 9/10/15 11/12/15 32/31/15 31/32/15
f 34/33/16 35/34/16 61/35/16 60/36/16
f 19/20/17 21/22/17 37/37/17 36/38/17
f 5/6/18 7/8/18 30/39/18 29/40/18
f 15/16/19 17/18/19 35/34/19 34/33/19
f 1/1/20 3/4/20 28/41/20 27/42/20
f 25/28/21 1/30/21 27/43/21 39/44/21
f 11/12/22 13/14/22 33/45/22 32/31/22
f 21/22/23 23/24/23 38/46/23 37/37/23
f 7/8/24 9/10/24 31/32/24 30/39/24
f 17/18/25 19/20/25 36/38/25 35/34/25
f 3/4/26 5/6/26 29/40/26 28/41/26
f 13/14/27 15/16/27 34/33/27 33/45/27
f 23/24/28 25/28/28 39/44/28 38/46/28
f 16/15/29 14/13/29 46/47/29 47/48/29
f 26/27/30 24/23/30 51/49/30 52/50/30
f 12/11/31 10/9/31 44/51/31 45/52/31
f 22/21/32 20/19/32 49/53/32 50/54/32
f 8/7/33 6/5/33 42/26/33 43/55/33
f 18/17/34 16/15/34 47/48/34 48/56/34
f 2/29/35 26/27/35 52/50/35 40/57/35
f 4/3/36 2/2/36 40/58/36 41/25/36
f 14/13/37 12/11/37 45/52/37 46/47/37
f 24/23/38 22/21/38 50/54/38 51/49/38
f 10/9/39 8/7/39 43/55/39 44/51/39
f 20/19/40 18/17/40 48/56/40 49/53/40
f 53/59/41 54/60/41 55/61/41 56/62/41 57/63/41 58/64/41 59/65/41 60/66/41 61/67/41 62/68/41 63/69/41 64/70/41 65/71/41
f 27/42/42 28/41/42 54/72/42 53/73/42
f 35/34/43 36/38/43 62/74/43 61/35/43
f 28/41/44 29/40/44 55/75/44 54/72/44
f 36/38/45 37/37/45 63/76/45 62/74/45
f 29/40/46 30/39/46 56/77/46 55/75/46
f 37/37/47 38/46/47 64/78/47 63/76/47
f 30/39/48 31/32/48 57/79/48 56/77/48
f 38/46/49 39/44/49 65/80/49 64/78/49
f 31/32/50 32/31/50 58/81/50 57/79/50
f 39/44/51 27/43/51 53/82/51 65/80/51
f 32/31/52 33/45/52 59/83/52 58/81/52
f 33/45/53 34/33/53 60/36/53 59/83/53
f 40/57/54 52/50/54 78/84/54 66/85/54
f 67/86/55 66/85/55 78/84/55 77/87/55 76/88/55 75/89/55 74/90/55 73/91/55 72/92/55 71/93/55 70/94/55 69/95/55 68/96/55
f 46/47/56 45/52/56 71/93/56 72/92/56
f 47/48/57 46/47/57 72/92/57 73/91/57
f 48/56/58 47/48/58 73/91/58 74/90/58
f 41/25/59 40/58/59 66/97/59 67/86/59
f 49/53/60 48/56/60 74/90/60 75/89/60
f 42/26/61 41/25/61 67/86/61 68/96/61
f 50/54/62 49/53/62 75/89/62 76/88/62
f 43/55/63 42/26/63 68/96/63 69/95/63
f 51/49/64 50/54/64 76/88/64 77/87/64
f 44/51/65 43/55/65 69/95/65 70/94/65
f 52/50/66 51/49/66 77/87/66 78/84/66
f 45/52/67 44/51/67 70/94/67 71/93/67
