# Blender v3.2.2 OBJ File: 'Lixos.blend'
# www.blender.org
mtllib Lixos.mtl
o Cube_Cube.002
v -1.000000 0.213469 1.000000
v -0.489908 1.518838 1.183526
v -0.628383 1.749987 1.206714
v 0.600716 1.783531 1.192870
v -1.272506 3.517665 1.272506
v 0.453240 1.557180 1.180261
v -1.000000 0.213469 -1.000000
v -0.128738 1.525095 1.182533
v -1.272506 3.517665 -1.272506
v -0.132720 1.758573 1.205352
v 0.436344 2.103405 1.226732
v 1.000000 0.213469 1.000000
v 0.227659 1.996169 1.226732
v 1.272506 3.517665 1.272506
v 1.000000 0.213469 -1.000000
v -0.317090 1.521832 1.183051
v 1.272506 3.517665 -1.272506
v -0.391211 1.754096 1.206062
v -1.000000 0.054698 1.000000
v -0.531086 2.004251 1.229525
v -1.000000 0.054698 -1.000000
v 0.522065 1.936589 1.209073
v -0.326371 1.891507 1.217606
v 1.000000 0.054698 1.000000
v -0.626573 2.046557 1.235404
v 1.000000 0.054698 -1.000000
v 0.345300 1.767234 1.202497
v 0.181377 1.531398 1.188213
v -0.229925 1.828109 1.212310
v -1.458435 3.517665 1.458435
v -1.458435 3.517665 -1.458435
v 1.458435 3.517665 1.458435
v 1.458435 3.517665 -1.458435
v 0.193022 1.764346 1.207221
v -1.276842 4.755706 1.276842
v 0.180567 1.413150 1.179632
v -1.276842 4.755706 -1.276842
v 1.276842 4.755706 1.276842
v 1.276842 4.755706 -1.276842
v 0.203130 1.864501 1.216460
v -0.885950 3.517665 1.272506
v -0.696225 0.213469 1.000000
v -0.139678 2.580681 1.291491
v 0.130518 2.583207 1.280074
v -0.885950 3.517665 -1.272506
v -0.696225 0.213469 -1.000000
v -0.696225 0.054698 -1.000000
v -0.696225 0.054698 1.000000
v -0.348786 2.267665 1.274275
v -1.015398 3.517665 -1.458435
v -0.146061 2.151004 1.255781
v -1.015398 3.517665 1.458435
v -0.888969 4.755706 -1.276842
v -0.888969 4.755706 1.276842
v 0.883058 4.755706 -1.276842
v 0.883059 4.755706 1.276842
v -0.237167 2.450363 1.284772
v 1.372922 4.100664 -1.372922
v -0.004358 2.376156 1.268539
v 1.372922 4.100664 1.372922
v 0.281068 2.345256 1.252080
v -0.955862 4.100664 -1.372922
v -0.955862 4.100664 1.372922
v 0.949507 4.100664 -1.372922
v 0.070039 2.244121 1.252692
v 0.949507 4.100664 1.372922
v 0.384643 2.383619 1.252122
v 0.883059 4.814332 1.340424
v -0.888969 4.814332 1.340424
v -0.024238 2.187664 1.253308
v -0.888969 4.814332 -1.340424
v -0.955862 4.042038 -1.441288
v -0.955862 4.042038 1.441288
v 0.883058 4.814332 -1.340424
v 0.949507 4.042038 -1.441288
v 0.949507 4.042038 1.441288
v -0.777362 4.292425 -1.407992
v -0.735172 4.462994 -1.386310
v 0.753888 4.462994 -1.386310
v 0.796078 4.292425 -1.407992
v 0.753888 4.462994 1.386310
v 0.796078 4.292425 1.407992
v -0.777362 4.292425 1.407992
v -0.735172 4.462994 1.386310
v -0.241453 2.458704 1.185170
v -0.143793 2.588687 1.195890
v -0.032708 2.204148 1.164176
v -0.008212 2.383657 1.178981
v 0.066397 2.251209 1.168058
v 0.189632 1.770943 1.128449
v 0.195095 1.880136 1.137454
v 0.224252 2.002799 1.147571
v 0.220061 2.113558 1.156705
v 0.126900 2.590246 1.196019
v 0.342123 1.773418 1.128653
v 0.277809 2.351599 1.176337
v 0.289925 2.150056 1.159715
v 0.376914 2.398660 1.180218
v 0.433315 2.109299 1.156354
v 0.519203 1.942158 1.142570
v 0.598007 1.788803 1.129922
v 0.450272 1.562956 1.111296
v 0.292534 2.037583 1.150439
v -0.353268 2.276386 1.170134
v -0.150164 2.158988 1.160452
v 0.177978 1.538012 1.109239
v 0.172515 1.428818 1.100233
v -0.018088 1.636374 1.117351
v -0.015225 1.692542 1.121983
v -0.628735 1.757737 1.127360
v -0.627418 2.065151 1.152713
v -0.490242 1.526188 1.108263
v -0.531447 2.012179 1.148344
v -0.391559 1.761749 1.127691
v -0.326720 1.899181 1.139025
v -0.363575 2.142129 1.159062
v -0.305004 2.108916 1.156322
v -0.230748 1.846210 1.134656
v -0.131759 1.689873 1.121763
v -0.129065 1.532298 1.108767
v -0.133063 1.766122 1.128051
v -0.317421 1.529112 1.108505
vt 0.375000 0.000000
vt 0.625000 0.000000
vt 0.625000 0.250000
vt 0.375000 0.250000
vt 0.625000 0.500000
vt 0.625000 0.500000
vt 0.625000 0.287972
vt 0.625000 0.287972
vt 0.625000 0.461449
vt 0.375000 0.500000
vt 0.625000 0.500000
vt 0.625000 0.750000
vt 0.375000 0.750000
vt 0.375000 0.962028
vt 0.625000 0.962028
vt 0.625000 1.000000
vt 0.375000 1.000000
vt 0.375000 0.250000
vt 0.375000 0.000000
vt 0.625000 0.750000
vt 0.375000 0.287972
vt 0.625000 0.287972
vt 0.375000 0.750000
vt 0.375000 0.500000
vt 0.375000 1.000000
vt 0.375000 0.962028
vt 0.162972 0.500000
vt 0.162972 0.750000
vt 0.625000 0.000000
vt 0.625000 0.250000
vt 0.375000 0.287972
vt 0.625000 0.250000
vt 0.625000 1.000000
vt 0.625000 0.962028
vt 0.625000 0.287972
vt 0.625000 0.500000
vt 0.625000 0.750000
vt 0.625000 0.750000
vt 0.625000 0.788551
vt 0.625000 0.788551
vt 0.625000 0.000000
vt 0.625000 0.962028
vt 0.625000 1.000000
vt 0.625000 0.962028
vt 0.625000 0.287972
vt 0.625000 0.461449
vt 0.125000 0.500000
vt 0.125000 0.750000
vt 0.625000 0.788551
vt 0.625000 0.788551
vt 0.625000 0.962028
vt 0.625000 0.962028
vt 0.515101 0.942647
vt 0.520925 0.913679
vt 0.531083 0.912505
vt 0.544878 0.900161
vt 0.554712 0.889721
vt 0.540335 0.835145
vt 0.521525 0.843720
vt 0.513015 0.843166
vt 0.518441 0.828160
vt 0.505795 0.818144
vt 0.494192 0.808719
vt 0.477104 0.824146
vt 0.475217 0.854870
vt 0.466955 0.855329
vt 0.482659 0.877039
vt 0.486707 0.889530
vt 0.474784 0.889298
vt 0.474543 0.910522
vt 0.474322 0.930090
vt 0.491841 0.944489
vt 0.511093 0.932367
vt 0.502543 0.910422
vt 0.492145 0.918032
vt 0.492476 0.889594
vt 0.486909 0.876695
vt 0.501102 0.853490
vt 0.492841 0.853921
vt 0.493028 0.837003
vt 0.510383 0.850511
vt 0.518763 0.851164
vt 0.525617 0.878371
vt 0.529178 0.867780
vt 0.539199 0.875696
vt 0.522201 0.891021
vt 0.518412 0.907491
vt 0.498535 0.900103
vt 0.554830 0.861633
vt 0.536774 0.845475
vt 0.625000 0.305358
vt 0.625000 0.306539
vt 0.625000 0.287972
vt 0.625000 0.461449
vt 0.625000 0.461449
vt 0.625000 0.445205
vt 0.625000 0.446409
vt 0.625000 0.803591
vt 0.625000 0.804795
vt 0.625000 0.943461
vt 0.625000 0.944642
vt 0.375000 0.046384
vt 0.375000 0.168677
vt 0.625000 0.167735
vt 0.625000 0.047326
vt 0.625000 0.702674
vt 0.625000 0.582265
vt 0.375000 0.581323
vt 0.375000 0.703616
vt 0.125000 0.581323
vt 0.125000 0.703616
vt 0.875000 0.582265
vt 0.875000 0.702674
vt 0.375000 0.067370
vt 0.375000 0.000000
vt 0.625000 0.000000
vt 0.625000 0.073809
vt 0.625000 0.665278
vt 0.625000 0.750000
vt 0.375000 0.750000
vt 0.375000 0.674678
vt 0.543348 0.668348
vt 0.375000 0.880376
vt 0.625000 0.880376
vt 0.625000 1.000000
vt 0.375000 1.000000
vt 0.244624 0.750000
vt 0.244624 0.678825
vt 0.625000 0.000000
vt 0.625000 0.085677
vt 0.755376 0.670969
vt 0.755376 0.750000
vt 0.125000 0.750000
vt 0.125000 0.682630
vt 0.625000 0.880376
vt 0.625000 1.000000
vt 0.755376 0.750000
vt 0.755376 0.664544
vt 0.625000 0.218914
vt 0.625000 0.104758
vt 0.625000 0.000000
vt 0.755376 0.750000
vt 0.755376 0.645462
vt 0.625000 0.880376
vt 0.625000 1.000000
vt 0.755376 0.750000
vt 0.625000 0.985098
vt 0.625000 1.000000
vt 0.375000 0.000000
vt 0.625000 0.000000
vt 0.625000 0.089959
vt 0.375000 0.102315
vt 0.625000 0.750000
vt 0.375000 0.750000
vt 0.375000 0.638544
vt 0.625000 0.647975
vt 0.375000 0.880376
vt 0.625000 0.880376
vt 0.625000 1.000000
vt 0.375000 1.000000
vt 0.244624 0.750000
vt 0.244624 0.643402
vt 0.625000 0.000000
vt 0.625000 0.082171
vt 0.755376 0.654151
vt 0.755376 0.750000
vt 0.125000 0.750000
vt 0.125000 0.647685
vt 0.625000 0.880376
vt 0.625000 1.000000
vt 0.755376 0.658184
vt 0.755376 0.750000
vt 0.625000 0.100561
vt 0.625000 0.000000
vt 0.625000 0.204926
vt 0.755376 0.750000
vt 0.755376 0.639793
vt 0.625000 0.880376
vt 0.625000 1.000000
vt 0.755376 0.750000
vt 0.625000 0.980005
vt 0.625000 1.000000
vt 0.375000 0.080577
vt 0.375000 0.000000
vt 0.625000 0.000000
vt 0.625000 0.084957
vt 0.625000 0.667241
vt 0.625000 0.750000
vt 0.375000 0.750000
vt 0.375000 0.671025
vt 0.543475 0.668475
vt 0.375000 0.880376
vt 0.625000 0.880376
vt 0.625000 1.000000
vt 0.375000 1.000000
vt 0.244624 0.750000
vt 0.244624 0.670190
vt 0.625000 0.000000
vt 0.625000 0.088100
vt 0.755376 0.750000
vt 0.755376 0.666095
vt 0.125000 0.750000
vt 0.125000 0.669423
vt 0.625000 0.880376
vt 0.625000 1.000000
vt 0.755376 0.664722
vt 0.755376 0.750000
vt 0.625000 0.106638
vt 0.625000 0.000000
vt 0.625000 0.213273
vt 0.755376 0.750000
vt 0.755376 0.646184
vt 0.625000 0.880376
vt 0.625000 1.000000
vt 0.755376 0.750000
vt 0.625000 1.000000
vt 0.625000 0.982020
vn -0.9966 -0.0822 0.0000
vn 0.0000 0.1451 -0.9894
vn 0.9966 -0.0822 0.0000
vn 0.0000 -0.0822 0.9966
vn -1.0000 0.0000 0.0000
vn 0.0000 -1.0000 0.0000
vn 0.0000 -0.0822 -0.9966
vn 1.0000 0.0000 0.0000
vn 0.0000 0.0000 1.0000
vn 0.0000 0.0000 -1.0000
vn 0.0000 1.0000 0.0000
vn 0.9894 0.1451 0.0000
vn 0.0000 0.1451 0.9894
vn -0.9894 0.1451 0.0000
vn 0.9957 0.0927 0.0000
vn -0.9956 0.0933 -0.0000
vn 0.0000 0.1293 -0.9916
vn 0.0000 0.1318 -0.9913
vn -0.0000 0.1293 0.9916
vn 0.0000 0.1318 0.9913
vn 0.0000 -0.7591 0.6510
vn 0.0000 -0.7591 -0.6510
vn 0.9707 -0.2401 0.0000
vn -0.9707 -0.2401 0.0000
vn 0.8371 -0.5409 -0.0813
vn -0.4550 0.8855 0.0937
vn 0.0428 -0.0834 0.9956
vn 0.8894 0.4571 0.0000
vn 0.0915 -0.9920 -0.0870
vn -0.8894 -0.4571 -0.0000
vn 0.0355 -0.0850 0.9957
vn -0.0163 0.9963 0.0841
vn -0.7377 -0.6727 -0.0579
vn 0.9969 -0.0217 -0.0751
vn 0.9944 -0.0669 -0.0814
vn 0.2043 0.0695 -0.9764
vn -0.6594 0.7219 0.2099
vn -0.3575 -0.0582 0.9321
vn -0.0058 0.9965 0.0837
vn -0.5016 -0.8636 -0.0507
vn -0.8526 0.5163 0.0799
vn 0.8455 0.5339 0.0083
vn 0.8456 -0.5276 -0.0806
vn -0.8000 0.5941 0.0842
vn 0.0477 -0.0889 0.9949
vn -0.8714 -0.4906 -0.0036
vn 0.9350 -0.3135 -0.1661
vn -0.3860 0.9085 0.1603
vn -0.4685 0.8705 0.1507
vn -0.0116 0.0304 0.9995
vn -0.3377 -0.9308 -0.1400
vn 0.2085 -0.4363 0.8753
vn -0.8590 -0.5100 -0.0460
vn 0.9998 0.0173 -0.0027
vn 0.0044 -0.0972 0.9953
vn 0.0170 -0.9951 -0.0973
vn -0.9344 0.3541 0.0387
vn -0.0170 0.9951 0.0973
vn 0.0062 -0.0899 0.9959
vn 0.9049 -0.4232 -0.0453
vn -0.2784 0.9365 0.2134
vn -0.4471 -0.8835 -0.1397
vn -0.5177 -0.8448 -0.1355
vn -0.0751 -0.0310 -0.9967
vn 0.9621 0.2676 0.0522
vn 0.1874 0.2412 0.9522
usemtl (null)
s off
f 1/1/1 5/2/1 9/3/1 7/4/1
f 58/5/2 33/6/2 50/7/2 62/8/2 64/9/2
f 15/10/3 17/11/3 14/12/3 12/13/3
f 42/14/4 41/15/4 5/16/4 1/17/4
f 1/1/5 7/4/5 21/18/5 19/19/5
f 14/12/6 17/11/6 33/6/6 32/20/6
f 46/21/7 45/22/7 17/11/7 15/10/7
f 15/10/8 12/13/8 24/23/8 26/24/8
f 42/14/9 1/17/9 19/25/9 48/26/9
f 47/27/6 26/24/6 24/23/6 48/28/6
f 9/3/6 5/2/6 30/29/6 31/30/6
f 46/21/10 15/10/10 26/24/10 47/31/10
f 45/22/6 9/3/6 31/30/6 50/7/6
f 37/32/11 35/33/11 54/34/11 53/35/11
f 58/5/12 39/36/12 38/37/12 60/38/12 32/20/12 33/6/12
f 66/39/13 60/38/13 38/37/13 56/40/13
f 31/30/14 30/29/14 35/41/14 37/32/14
f 62/8/2 50/7/2 31/30/2 37/32/2 53/35/2
f 5/16/6 41/15/6 52/42/6 30/43/6
f 53/35/5 54/34/5 69/44/5 71/45/5
f 55/46/11 56/40/11 38/37/11 39/36/11
f 41/15/6 14/12/6 32/20/6 52/42/6
f 7/4/10 46/21/10 47/31/10 21/18/10
f 17/11/6 45/22/6 50/7/6 33/6/6
f 21/47/6 47/27/6 48/28/6 19/48/6
f 12/13/9 42/14/9 48/26/9 24/23/9
f 7/4/7 9/3/7 45/22/7 46/21/7
f 66/39/15 56/40/15 68/49/15 76/50/15
f 58/5/2 64/9/2 55/46/2 39/36/2
f 54/34/16 63/51/16 73/52/16 69/44/16
f 63/51/13 52/42/13 32/20/13 60/38/13 66/39/13
f 111/53/4 116/54/4 104/55/4 85/56/4 86/57/4 41/15/4 42/14/4 12/13/4 14/12/4 98/58/4 97/59/4 103/60/4 99/61/4 100/62/4 101/63/4 102/64/4 106/65/4 107/66/4 108/67/4 119/68/4 120/69/4 122/70/4 112/71/4 110/72/4 113/73/4
f 115/74/4 114/75/4 121/76/4 119/68/4 108/67/4 109/77/4 91/78/4 90/79/4 95/80/4 92/81/4 93/82/4 87/83/4 89/84/4 88/85/4 105/86/4 104/55/4 116/54/4 117/87/4 118/88/4
f 98/58/4 14/12/4 41/15/4 86/57/4 94/89/4 96/90/4
f 103/60/4 97/59/4 93/82/4 92/81/4
f 63/51/13 54/34/13 35/33/13 30/43/13 52/42/13
f 78/91/17 77/92/17 72/93/17 71/45/17 74/94/17 75/95/17 80/96/17 79/97/17
f 75/95/18 72/93/18 77/92/18 80/96/18
f 71/45/11 69/44/11 68/49/11 74/94/11
f 81/98/19 82/99/19 76/50/19 68/49/19 69/44/19 73/52/19 83/100/19 84/101/19
f 83/100/20 73/52/20 76/50/20 82/99/20
f 64/9/21 62/8/21 72/93/21 75/95/21
f 56/40/8 55/46/8 74/94/8 68/49/8
f 63/51/22 66/39/22 76/50/22 73/52/22
f 62/8/16 53/35/16 71/45/16 72/93/16
f 55/46/15 64/9/15 75/95/15 74/94/15
f 83/102/23 77/103/23 78/104/23 84/105/23
f 81/106/24 79/107/24 80/108/24 82/109/24
f 82/109/11 80/108/11 77/110/11 83/111/11
f 78/112/6 79/107/6 81/106/6 84/113/6
f 101/114/25 4/115/25 6/116/25 102/117/25
f 92/118/26 13/119/26 11/120/26 99/121/26 103/122/26
f 22/123/27 27/124/27 6/125/27 4/126/27
f 99/121/28 11/120/28 22/127/28 100/128/28
f 6/116/29 28/129/29 106/130/29 102/117/29
f 95/131/30 27/132/30 13/119/30 92/118/30
f 100/128/28 22/127/28 4/133/28 101/134/28
f 11/120/27 13/119/27 27/124/27 22/123/27
f 6/125/31 27/124/31 34/135/31 28/136/31
f 34/137/32 27/132/32 95/131/32 90/138/32
f 108/139/33 107/140/33 36/141/33
f 106/130/34 28/129/34 36/141/34 107/140/34
f 40/142/35 34/137/35 90/138/35 91/143/35
f 28/136/36 34/135/36 40/144/36 36/145/36
f 109/146/37 40/142/37 91/143/37
f 36/145/38 40/144/38 109/147/38 108/148/38
f 43/149/39 44/150/39 94/151/39 86/152/39
f 51/153/40 49/154/40 104/155/40 105/156/40
f 57/157/27 59/158/27 44/159/27 43/160/27
f 104/155/41 49/154/41 57/161/41 85/162/41
f 94/151/42 44/150/42 61/163/42 96/164/42
f 88/165/43 59/166/43 51/153/43 105/156/43
f 85/162/44 57/161/44 43/167/44 86/168/44
f 49/154/27 51/153/27 59/158/27 57/157/27
f 44/159/45 59/158/45 65/169/45 61/170/45
f 89/171/46 65/172/46 59/166/46 88/165/46
f 98/173/47 67/174/47 97/175/47
f 61/163/48 67/174/48 98/173/48 96/164/48
f 70/176/49 65/172/49 89/171/49 87/177/49
f 61/170/50 65/169/50 70/178/50 67/179/50
f 70/176/51 87/177/51 93/180/51
f 67/179/52 70/178/52 93/181/52 97/182/52
f 112/183/53 2/184/53 3/185/53 110/186/53
f 121/187/54 10/188/54 8/189/54 120/190/54 119/191/54
f 16/192/55 18/193/55 3/194/55 2/195/55
f 8/189/56 16/196/56 122/197/56 120/190/56
f 110/186/57 3/185/57 20/198/57 113/199/57
f 18/200/58 10/188/58 121/187/58 114/201/58
f 16/196/56 2/202/56 112/203/56 122/197/56
f 8/189/55 10/188/55 18/193/55 16/192/55
f 3/194/59 18/193/59 23/204/59 20/205/59
f 115/206/60 23/207/60 18/200/60 114/201/60
f 111/208/61 25/209/61 116/210/61
f 20/198/62 25/209/62 111/208/62 113/199/62
f 29/211/63 23/207/63 115/206/63 118/212/63
f 20/205/64 23/204/64 29/213/64 25/214/64
f 117/215/65 29/211/65 118/212/65
f 116/216/66 25/214/66 29/213/66 117/217/66
