# Blender v3.2.2 OBJ File: 'Rua+.blend'
# www.blender.org
mtllib Rua+1.mtl
o Cube.001_Cube.002
v -11.731776 0.119220 60.399784
v -11.731776 0.543624 60.399784
v -11.731776 0.119220 9.675812
v -11.731776 0.543624 9.675812
v -11.731776 1.600248 60.399784
v -11.731776 1.600248 9.675812
v 11.731776 0.119220 60.399784
v 11.731776 0.543624 60.399784
v 11.731776 0.119220 9.675812
v 11.731776 0.543624 9.675812
v -0.409514 0.119220 9.675812
v -0.409514 0.543624 9.675812
v -0.409514 0.119220 60.399784
v -0.409514 0.543624 60.399784
v 11.731776 1.600248 60.399784
v 11.731776 1.600248 9.675812
v -11.731776 0.119220 47.245399
v -11.731776 0.543624 47.245399
v -11.731776 1.600248 47.245399
v 11.731776 0.119220 47.245399
v 11.731776 0.543624 47.245399
v 11.731776 1.600248 47.245399
v 11.731776 0.543624 22.988276
v 11.731776 0.119220 22.988276
v -11.731776 0.543624 22.966635
v -11.731776 0.119220 22.966635
v -39.872250 0.119220 47.245399
v -39.872250 0.119220 60.399784
v -39.872250 1.600248 22.966635
v -39.872250 1.600248 9.675810
v -39.872250 0.119220 9.675810
v -39.872250 1.600248 60.399784
v 39.872250 0.119220 47.245399
v 39.872250 0.119220 60.399784
v 39.872250 1.600248 22.988276
v 39.872250 1.600248 9.675810
v 39.872250 0.119220 9.675810
v 39.872250 1.600248 60.399784
v -39.872250 1.600248 47.245399
v 39.872250 1.600248 47.245399
v 39.872250 0.119220 22.988276
v -39.872250 0.119220 22.966635
v -39.913158 -0.022815 22.966635
v -39.913158 -0.022815 47.245399
v 39.872250 -0.022815 22.988276
v 39.872250 -0.022815 47.245399
v 39.872250 0.401589 47.245399
v 39.872250 0.401589 22.988276
v -39.913158 0.401589 22.966635
v -39.913158 0.401589 47.245399
v -11.731776 0.119220 35.106018
v -11.731776 0.543624 35.106018
v -39.913158 -0.022815 35.106018
v -39.913158 0.401589 35.106018
v 11.731776 0.543624 35.116837
v 39.872250 0.401589 35.116837
v 11.731776 0.119220 35.116837
v 39.872250 -0.022815 35.116837
v -0.409514 0.543624 22.977079
vt 0.375000 0.875000
vt 0.625000 0.875000
vt 0.625000 1.000000
vt 0.375000 1.000000
vt 0.875000 0.500000
vt 0.875000 0.500000
vt 0.875000 0.546971
vt 0.875000 0.547047
vt 0.875000 0.500000
vt 0.875000 0.500000
vt 0.625000 1.000000
vt 0.625000 1.000000
vt 0.375000 1.000000
vt 0.875000 0.703512
vt 0.875000 0.703512
vt 0.875000 0.750000
vt 0.875000 0.750000
vt 0.375000 0.250000
vt 0.375000 0.250000
vt 0.625000 0.250000
vt 0.625000 0.250000
vt 0.625000 0.250000
vt 0.625000 0.250000
vt 0.625000 0.506114
vt 0.625000 0.375000
vt 0.250000 0.500000
vt 0.375000 1.000000
vt 0.625000 1.000000
vt 0.125000 0.547047
vt 0.375000 0.202953
vt 0.625000 0.202953
vt 0.625000 0.203029
vt 0.375000 0.203029
vt 0.125000 0.546971
vt 0.875000 0.546971
vt 0.875000 0.547047
vt 0.375000 1.000000
vt 0.625000 1.000000
vt 0.625000 1.000000
vt 0.875000 0.750000
vt 0.875000 0.750000
vt 0.875000 0.703512
vt 0.875000 0.703512
vt 0.625000 0.250000
vt 0.625000 0.250000
vt 0.375000 0.250000
vt 0.375000 0.250000
vt 0.875000 0.703512
vt 0.125000 0.703512
vt 0.375000 0.046488
vt 0.625000 0.046488
vt 0.625000 0.046488
vt 0.375000 0.046488
vt 0.125000 0.703512
vt 0.875000 0.703512
vt 0.125000 0.750000
vt 0.125000 0.750000
vt 0.125000 0.703512
vt 0.875000 0.750000
vt 0.875000 0.750000
vt 0.125000 0.703512
vt 0.125000 0.750000
vt 0.125000 0.750000
vt 0.875000 0.625279
vt 0.875000 0.703512
vt 0.875000 0.625279
vt 0.875000 0.547047
vt 0.125000 0.547047
vt 0.125000 0.625279
vt 0.125000 0.625279
vt 0.875000 0.703512
vt 0.125000 0.703512
vt 0.125000 0.625241
vt 0.875000 0.625241
vt 0.125000 0.546971
vt 0.875000 0.546971
vt 0.125000 0.703512
vt 0.125000 0.625241
vt 0.875000 0.625241
vt 0.750000 0.565557
vt 0.750000 0.750000
vn 0.0000 0.0000 1.0000
vn 0.0000 1.0000 -0.0000
vn 0.0000 0.0000 -1.0000
vn -1.0000 -0.0000 0.0000
vn -0.0002 0.0000 1.0000
vn 0.0000 -1.0000 0.0000
vn 1.0000 0.0000 0.0000
vn 0.0050 1.0000 0.0000
vn -0.0050 -1.0000 0.0000
vn 0.0050 -1.0000 0.0000
vn -0.0050 1.0000 0.0000
usemtl None
s off
f 13/1/1 14/2/1 2/3/1 1/4/1
f 6/5/2 30/6/2 29/7/2 35/8/2 36/9/2 16/10/2
f 5/11/1 32/12/1 28/13/1 1/4/1 2/3/1
f 19/14/2 39/15/2 32/16/2 5/17/2
f 3/18/3 31/19/3 30/20/3 6/21/3 4/22/3
f 6/5/3 16/10/3 10/23/3 4/22/3
f 14/2/4 59/24/4 12/25/4 11/26/4 13/1/4
f 13/1/1 7/27/1 8/28/1 14/2/1
f 24/29/5 41/30/5 35/31/5 29/32/5 42/33/5 26/34/5 25/35/5 23/36/5
f 7/27/1 34/37/1 38/38/1 15/39/1 8/28/1
f 15/40/2 38/41/2 40/42/2 22/43/2
f 16/44/3 36/45/3 37/46/3 9/47/3 10/23/3
f 19/14/3 18/48/3 17/49/3 27/50/3 39/51/3
f 22/43/3 40/52/3 33/53/3 20/54/3 21/55/3
f 1/56/6 28/57/6 27/58/6 17/49/6
f 2/59/7 18/48/7 19/14/7 5/17/7
f 8/60/4 15/40/4 22/43/4 21/55/4
f 42/33/4 29/32/4 30/20/4 31/19/4
f 41/30/7 37/46/7 36/45/7 35/31/7
f 27/50/4 28/13/4 32/16/4 39/51/4
f 33/53/7 40/52/7 38/41/7 34/37/7
f 20/54/6 33/61/6 34/62/6 7/63/6
f 55/64/8 21/55/8 47/65/8 56/66/8
f 24/29/3 23/36/3 48/67/3 45/68/3
f 57/69/9 24/29/9 45/68/9 58/70/9
f 17/49/1 18/48/1 50/71/1 44/72/1
f 53/73/4 44/72/4 50/71/4 54/74/4
f 25/35/3 26/34/3 43/75/3 49/76/3
f 21/55/1 20/54/1 46/77/1 47/65/1
f 51/78/10 17/49/10 44/72/10 53/73/10
f 58/70/7 56/66/7 47/65/7 46/77/7
f 52/79/11 25/35/11 49/76/11 54/74/11
f 18/48/11 52/79/11 54/74/11 50/71/11
f 26/34/10 51/78/10 53/73/10 43/75/10
f 43/75/4 53/73/4 54/74/4 49/76/4
f 45/68/7 48/67/7 56/66/7 58/70/7
f 20/54/9 57/69/9 58/70/9 46/77/9
f 23/36/8 55/64/8 56/66/8 48/67/8
f 59/80/2 25/35/2 52/79/2 18/48/2 2/59/2 14/81/2
f 23/36/2 59/80/2 14/81/2 8/60/2 21/55/2 55/64/2
